<mxfile host="app.diagrams.net" agent="Mozilla/5.0 (Macintosh; Intel Mac OS X 10_15_7) AppleWebKit/537.36 (KHTML, like Gecko) Chrome/135.0.0.0 Safari/537.36" version="26.2.12">
  <diagram name="Page-1" id="S0Ns589UQ71Z0q65Cnlm">
    <mxGraphModel dx="834" dy="536" grid="1" gridSize="10" guides="1" tooltips="1" connect="1" arrows="1" fold="1" page="1" pageScale="1" pageWidth="827" pageHeight="1169" math="0" shadow="0">
      <root>
        <mxCell id="0" />
        <mxCell id="1" parent="0" />
        <mxCell id="VzhWOD0CqdrHoMF2VElk-9" value="" style="edgeStyle=orthogonalEdgeStyle;rounded=0;orthogonalLoop=1;jettySize=auto;html=1;" edge="1" parent="1" source="VzhWOD0CqdrHoMF2VElk-1" target="VzhWOD0CqdrHoMF2VElk-3">
          <mxGeometry relative="1" as="geometry" />
        </mxCell>
        <mxCell id="VzhWOD0CqdrHoMF2VElk-1" value="User Logs in" style="rounded=1;whiteSpace=wrap;html=1;" vertex="1" parent="1">
          <mxGeometry x="330" y="20" width="120" height="40" as="geometry" />
        </mxCell>
        <mxCell id="VzhWOD0CqdrHoMF2VElk-8" value="" style="edgeStyle=orthogonalEdgeStyle;rounded=0;orthogonalLoop=1;jettySize=auto;html=1;" edge="1" parent="1" source="VzhWOD0CqdrHoMF2VElk-2" target="VzhWOD0CqdrHoMF2VElk-3">
          <mxGeometry relative="1" as="geometry" />
        </mxCell>
        <mxCell id="VzhWOD0CqdrHoMF2VElk-2" value="Middleware checks token" style="rounded=1;whiteSpace=wrap;html=1;" vertex="1" parent="1">
          <mxGeometry x="320" y="90" width="140" height="40" as="geometry" />
        </mxCell>
        <mxCell id="VzhWOD0CqdrHoMF2VElk-11" value="" style="edgeStyle=orthogonalEdgeStyle;rounded=0;orthogonalLoop=1;jettySize=auto;html=1;" edge="1" parent="1" source="VzhWOD0CqdrHoMF2VElk-3" target="VzhWOD0CqdrHoMF2VElk-10">
          <mxGeometry relative="1" as="geometry" />
        </mxCell>
        <mxCell id="VzhWOD0CqdrHoMF2VElk-12" value="Yes" style="edgeLabel;html=1;align=center;verticalAlign=middle;resizable=0;points=[];" vertex="1" connectable="0" parent="VzhWOD0CqdrHoMF2VElk-11">
          <mxGeometry x="-0.0714" y="-1" relative="1" as="geometry">
            <mxPoint as="offset" />
          </mxGeometry>
        </mxCell>
        <mxCell id="VzhWOD0CqdrHoMF2VElk-3" value="Is token&lt;div&gt;&amp;nbsp;valid?&lt;/div&gt;" style="rhombus;whiteSpace=wrap;html=1;" vertex="1" parent="1">
          <mxGeometry x="350" y="180" width="80" height="80" as="geometry" />
        </mxCell>
        <mxCell id="VzhWOD0CqdrHoMF2VElk-10" value="Grant Access to Sponsor Dashboard" style="rounded=1;whiteSpace=wrap;html=1;" vertex="1" parent="1">
          <mxGeometry x="130" y="190" width="120" height="60" as="geometry" />
        </mxCell>
        <mxCell id="VzhWOD0CqdrHoMF2VElk-17" value="" style="edgeStyle=orthogonalEdgeStyle;rounded=0;orthogonalLoop=1;jettySize=auto;html=1;" edge="1" parent="1" source="VzhWOD0CqdrHoMF2VElk-13" target="VzhWOD0CqdrHoMF2VElk-16">
          <mxGeometry relative="1" as="geometry" />
        </mxCell>
        <mxCell id="VzhWOD0CqdrHoMF2VElk-13" value="Redirect to Login" style="rounded=1;whiteSpace=wrap;html=1;" vertex="1" parent="1">
          <mxGeometry x="600" y="190" width="120" height="60" as="geometry" />
        </mxCell>
        <mxCell id="VzhWOD0CqdrHoMF2VElk-19" value="" style="edgeStyle=orthogonalEdgeStyle;rounded=0;orthogonalLoop=1;jettySize=auto;html=1;" edge="1" parent="1" source="VzhWOD0CqdrHoMF2VElk-16" target="VzhWOD0CqdrHoMF2VElk-18">
          <mxGeometry relative="1" as="geometry" />
        </mxCell>
        <mxCell id="VzhWOD0CqdrHoMF2VElk-16" value="User submits login form" style="rounded=1;whiteSpace=wrap;html=1;" vertex="1" parent="1">
          <mxGeometry x="600" y="280" width="120" height="60" as="geometry" />
        </mxCell>
        <mxCell id="VzhWOD0CqdrHoMF2VElk-21" value="" style="edgeStyle=orthogonalEdgeStyle;rounded=0;orthogonalLoop=1;jettySize=auto;html=1;" edge="1" parent="1" source="VzhWOD0CqdrHoMF2VElk-18" target="VzhWOD0CqdrHoMF2VElk-20">
          <mxGeometry relative="1" as="geometry" />
        </mxCell>
        <mxCell id="VzhWOD0CqdrHoMF2VElk-18" value="POST to strapi endpoint" style="rounded=1;whiteSpace=wrap;html=1;" vertex="1" parent="1">
          <mxGeometry x="600" y="370" width="120" height="60" as="geometry" />
        </mxCell>
        <mxCell id="VzhWOD0CqdrHoMF2VElk-24" value="" style="edgeStyle=orthogonalEdgeStyle;rounded=0;orthogonalLoop=1;jettySize=auto;html=1;" edge="1" parent="1" source="VzhWOD0CqdrHoMF2VElk-20" target="VzhWOD0CqdrHoMF2VElk-23">
          <mxGeometry relative="1" as="geometry" />
        </mxCell>
        <mxCell id="VzhWOD0CqdrHoMF2VElk-20" value="Strapi returns JWT token if valid" style="rounded=1;whiteSpace=wrap;html=1;" vertex="1" parent="1">
          <mxGeometry x="600" y="460" width="120" height="60" as="geometry" />
        </mxCell>
        <mxCell id="VzhWOD0CqdrHoMF2VElk-23" value="Frontend stores&amp;nbsp;&lt;div&gt;t&lt;span style=&quot;background-color: transparent; color: light-dark(rgb(0, 0, 0), rgb(255, 255, 255));&quot;&gt;oken&lt;/span&gt;&lt;/div&gt;" style="rounded=1;whiteSpace=wrap;html=1;" vertex="1" parent="1">
          <mxGeometry x="450" y="460" width="120" height="60" as="geometry" />
        </mxCell>
        <mxCell id="VzhWOD0CqdrHoMF2VElk-32" value="" style="endArrow=classic;html=1;rounded=0;entryX=0;entryY=0.5;entryDx=0;entryDy=0;" edge="1" parent="1" target="VzhWOD0CqdrHoMF2VElk-13">
          <mxGeometry width="50" height="50" relative="1" as="geometry">
            <mxPoint x="430" y="220" as="sourcePoint" />
            <mxPoint x="480" y="170" as="targetPoint" />
          </mxGeometry>
        </mxCell>
        <mxCell id="VzhWOD0CqdrHoMF2VElk-33" value="No" style="edgeLabel;html=1;align=center;verticalAlign=middle;resizable=0;points=[];" vertex="1" connectable="0" parent="VzhWOD0CqdrHoMF2VElk-32">
          <mxGeometry x="-0.0471" y="4" relative="1" as="geometry">
            <mxPoint as="offset" />
          </mxGeometry>
        </mxCell>
        <mxCell id="VzhWOD0CqdrHoMF2VElk-34" value="" style="endArrow=classic;html=1;rounded=0;entryX=0;entryY=0.5;entryDx=0;entryDy=0;" edge="1" parent="1" target="VzhWOD0CqdrHoMF2VElk-1">
          <mxGeometry width="50" height="50" relative="1" as="geometry">
            <mxPoint x="450" y="490" as="sourcePoint" />
            <mxPoint x="40" y="480" as="targetPoint" />
            <Array as="points">
              <mxPoint x="40" y="490" />
              <mxPoint x="40" y="40" />
            </Array>
          </mxGeometry>
        </mxCell>
      </root>
    </mxGraphModel>
  </diagram>
</mxfile>
